<svg xmlns="http://www.w3.org/2000/svg" version="1.1" width="1300" height="1300" viewBox="0 0 343.95833 343.95833" id="svg44547" sodipodi:docname="logo.svg" inkscape:version="1.2.2 (b0a84865, 2022-12-01)" xmlns:inkscape="http://www.inkscape.org/namespaces/inkscape" xmlns:sodipodi="http://sodipodi.sourceforge.net/DTD/sodipodi-0.dtd" xmlns:svg="http://www.w3.org/2000/svg"><sodipodi:namedview id="namedview44549" pagecolor="#ffffff" bordercolor="#000000" borderopacity="0.25" inkscape:showpageshadow="2" inkscape:pageopacity="0.0" inkscape:pagecheckerboard="0" inkscape:deskcolor="#d1d1d1" inkscape:document-units="px" showgrid="false" inkscape:zoom="0.94619486" inkscape:cx="716.02587" inkscape:cy="575.46286" inkscape:window-width="1728" inkscape:window-height="1057" inkscape:window-x="0" inkscape:window-y="32" inkscape:window-maximized="0" inkscape:current-layer="g45170" showguides="true"></sodipodi:namedview><defs id="defs44544"></defs><g inkscape:label="Layer 1" inkscape:groupmode="layer" id="layer1" transform="translate(224.52412,-46.047909)">
    <g id="g45170" transform="translate(22.652542,284.41525)" inkscape:label="logo">
      <rect style="fill:#161616;fill-opacity:1;stroke:#904040;stroke-width:0;stroke-dasharray:none;stroke-dashoffset:0;stroke-opacity:1;paint-order:normal" id="rect37816" width="343.95834" height="343.95834" x="-247.17667" y="-238.36734" rx="7.6093784e-05" ry="9.4053615e-07" inkscape:export-filename="logo.jpg" inkscape:export-xdpi="96" inkscape:export-ydpi="96" inkscape:label="logoBG"></rect>
      <g id="g47482" inkscape:label="lapisLazuli">
        <path sodipodi:type="star" style="fill:#070a0d;fill-opacity:1;stroke:#3d5f7f;stroke-width:2.78701;stroke-dasharray:none;stroke-dashoffset:0;stroke-opacity:1;paint-order:normal" id="path37818" inkscape:flatsided="true" sodipodi:sides="7" sodipodi:cx="-2372.2505" sodipodi:cy="490.85654" sodipodi:r1="84.265114" sodipodi:r2="75.920242" sodipodi:arg1="-1.5707963" sodipodi:arg2="-1.1219974" inkscape:rounded="0" inkscape:randomized="0" d="m -2372.2505,406.59142 65.8811,31.72668 16.2713,71.28919 -45.5911,57.16949 -73.1226,0 -45.5911,-57.16949 16.2713,-71.28919 z" inkscape:transform-center-x="-1.1633478e-05" inkscape:transform-center-y="-2.5987569" transform="matrix(-0.36604391,0.17647988,-0.17647988,-0.36604391,-812.21096,620.52509)" inkscape:label="bg"></path>
        <path sodipodi:type="star" style="fill:#3d5f7f;fill-opacity:1;stroke:none;stroke-width:0.264583;stroke-dasharray:none;stroke-dashoffset:0;stroke-opacity:1;paint-order:normal" id="path37820" inkscape:flatsided="true" sodipodi:sides="7" sodipodi:cx="-2372.2505" sodipodi:cy="490.85654" sodipodi:r1="84.265114" sodipodi:r2="75.920242" sodipodi:arg1="-1.5707963" sodipodi:arg2="-1.1219974" inkscape:rounded="0" inkscape:randomized="0" d="m -2372.2505,406.59142 65.8811,31.72668 16.2713,71.28919 -45.5911,57.16949 -73.1226,0 -45.5911,-57.16949 16.2713,-71.28919 z" inkscape:transform-center-x="-1.9984193e-05" inkscape:transform-center-y="-1.9645844" transform="matrix(-0.27671771,0.13341325,-0.13341325,-0.27671771,-621.44635,474.51384)" inkscape:label="mid"></path>
        <path sodipodi:type="star" style="fill:#4d6f90;fill-opacity:1;stroke:none;stroke-width:0.264594;stroke-dasharray:none;stroke-dashoffset:0;stroke-opacity:1;paint-order:normal" id="path37822" inkscape:flatsided="false" sodipodi:sides="7" sodipodi:cx="-2372.2505" sodipodi:cy="490.85654" sodipodi:r1="60.7854" sodipodi:r2="75.877029" sodipodi:arg1="-1.5707963" sodipodi:arg2="-1.1242978" inkscape:rounded="0" inkscape:randomized="0" d="m -2372.2505,430.07114 32.7645,-7.653 14.7595,30.53932 26.4116,20.84472 -14.6742,30.58038 0.1703,33.64594 -33.0579,7.59379 -26.1992,21.11108 -26.5484,-21.11108 -32.8403,-7.32086 -0.047,-33.91887 -14.7519,-30.24003 26.4894,-21.18507 14.4449,-30.38785 z" inkscape:transform-center-x="-1.7850573" inkscape:transform-center-y="-5.6730748" transform="matrix(-0.33988022,-5.155935e-4,1.4284337e-4,-0.3401893,-836.83165,188.02663)" inkscape:label="high"></path>
      </g>
      <g id="g1702" inkscape:label="amethyst">
        <path sodipodi:type="star" style="fill:#060407;fill-opacity:1;stroke:#9482ac;stroke-width:2.78701;stroke-dasharray:none;stroke-dashoffset:0;stroke-opacity:1;paint-order:normal" id="path37824" inkscape:flatsided="true" sodipodi:sides="7" sodipodi:cx="-2372.2505" sodipodi:cy="490.85654" sodipodi:r1="84.265114" sodipodi:r2="75.920242" sodipodi:arg1="-1.5707963" sodipodi:arg2="-1.1219974" inkscape:rounded="0" inkscape:randomized="0" d="m -2372.2505,406.59142 65.8811,31.72668 16.2713,71.28919 -45.5911,57.16949 -73.1226,0 -45.5911,-57.16949 16.2713,-71.28919 z" inkscape:transform-center-x="-5.6923585e-05" inkscape:transform-center-y="-2.5987484" transform="matrix(-0.36622852,-0.17609647,0.17609647,-0.36622852,-1075.0178,-215.73679)" inkscape:label="bg"></path>
        <path sodipodi:type="star" style="fill:#9482ac;fill-opacity:1;stroke:none;stroke-width:0.264583;stroke-dasharray:none;stroke-dashoffset:0;stroke-opacity:1;paint-order:normal" id="path37826" inkscape:flatsided="true" sodipodi:sides="7" sodipodi:cx="-2372.2505" sodipodi:cy="490.85654" sodipodi:r1="84.265114" sodipodi:r2="75.920242" sodipodi:arg1="-1.5707963" sodipodi:arg2="-1.1219974" inkscape:rounded="0" inkscape:randomized="0" d="m -2372.2505,406.59142 65.8811,31.72668 16.2713,71.28919 -45.5911,57.16949 -73.1226,0 -45.5911,-57.16949 16.2713,-71.28919 z" inkscape:transform-center-x="-1.6072387e-05" inkscape:transform-center-y="-1.9645685" transform="matrix(-0.27685726,-0.1331234,0.1331234,-0.27685726,-841.91314,-157.66244)" inkscape:label="mid"></path>
        <path sodipodi:type="star" style="fill:#9d89b7;fill-opacity:1;stroke:none;stroke-width:0.264594;stroke-dasharray:none;stroke-dashoffset:0;stroke-opacity:1;paint-order:normal" id="path37828" inkscape:flatsided="false" sodipodi:sides="7" sodipodi:cx="-2372.2505" sodipodi:cy="490.85654" sodipodi:r1="60.7854" sodipodi:r2="75.877029" sodipodi:arg1="-1.5707963" sodipodi:arg2="-1.1242978" inkscape:rounded="0" inkscape:randomized="0" d="m -2372.2505,430.07114 32.7645,-7.653 14.7595,30.53932 26.4116,20.84472 -14.6742,30.58038 0.1703,33.64594 -33.0579,7.59379 -26.1992,21.11108 -26.5484,-21.11108 -32.8403,-7.32086 -0.047,-33.91887 -14.7519,-30.24003 26.4894,-21.18507 14.4449,-30.38785 z" inkscape:transform-center-x="-1.785065" inkscape:transform-center-y="-5.6730623" transform="matrix(-0.21154855,-0.26601888,0.26602804,-0.21203268,-752.27091,-504.69267)" inkscape:label="high"></path>
      </g>
      <g id="g1687" inkscape:label="gold">
        <path sodipodi:type="star" style="fill:#090705;fill-opacity:1;stroke:#7f5f3d;stroke-width:2.78701;stroke-dasharray:none;stroke-dashoffset:0;stroke-opacity:1;paint-order:normal" id="path37830" inkscape:flatsided="true" sodipodi:sides="7" sodipodi:cx="-2372.2505" sodipodi:cy="490.85654" sodipodi:r1="84.265114" sodipodi:r2="75.920242" sodipodi:arg1="-1.5707963" sodipodi:arg2="-1.1219974" inkscape:rounded="0" inkscape:randomized="0" d="m -2372.2505,406.59142 65.8811,31.72668 16.2713,71.28919 -45.5911,57.16949 -73.1226,0 -45.5911,-57.16949 16.2713,-71.28919 z" inkscape:transform-center-x="-9.0264991e-06" inkscape:transform-center-y="-2.5987524" transform="matrix(0.40636596,0,0,0.40636596,888.81157,-372.91671)" inkscape:label="bg"></path>
        <path sodipodi:type="star" style="fill:#7f5f3d;fill-opacity:1;stroke:none;stroke-width:0.264583;stroke-dasharray:none;stroke-dashoffset:0;stroke-opacity:1;paint-order:normal" id="path37832" inkscape:flatsided="true" sodipodi:sides="7" sodipodi:cx="-2372.2505" sodipodi:cy="490.85654" sodipodi:r1="84.265114" sodipodi:r2="75.920242" sodipodi:arg1="-1.5707963" sodipodi:arg2="-1.1219974" inkscape:rounded="0" inkscape:randomized="0" d="m -2372.2505,406.59142 65.8811,31.72668 16.2713,71.28919 -45.5911,57.16949 -73.1226,0 -45.5911,-57.16949 16.2713,-71.28919 z" inkscape:transform-center-x="-8.8269039e-06" inkscape:transform-center-y="-1.9645759" transform="matrix(0.30719991,0,0,0.30719991,653.5648,-324.24038)" inkscape:label="mid"></path>
        <path sodipodi:type="star" style="fill:#906f4d;fill-opacity:1;stroke:none;stroke-width:0.264594;stroke-dasharray:none;stroke-dashoffset:0;stroke-opacity:1;paint-order:normal" id="path37834" inkscape:flatsided="false" sodipodi:sides="7" sodipodi:cx="-2372.2505" sodipodi:cy="490.85654" sodipodi:r1="60.7854" sodipodi:r2="75.877029" sodipodi:arg1="-1.5707963" sodipodi:arg2="-1.1242978" inkscape:rounded="0" inkscape:randomized="0" d="m -2372.2505,430.07114 32.7645,-7.653 14.7595,30.53932 26.4116,20.84472 -14.6742,30.58038 0.1703,33.64594 -33.0579,7.59379 -26.1992,21.11108 -26.5484,-21.11108 -32.8403,-7.32086 -0.047,-33.91887 -14.7519,-30.24003 26.4894,-21.18507 14.4449,-30.38785 z" inkscape:transform-center-x="-1.7850514" inkscape:transform-center-y="-5.6730642" transform="matrix(0.30593137,0.14807035,-0.14786881,0.30637165,723.16029,27.359121)" inkscape:label="high"></path>
      </g>
      <g id="g1682" inkscape:label="turquoise" transform="translate(0,0.2796288)">
        <path sodipodi:type="star" style="fill:#050909;fill-opacity:1;stroke:#3d7f7d;stroke-width:2.78701;stroke-dasharray:none;stroke-dashoffset:0;stroke-opacity:1;paint-order:normal" id="path37836" inkscape:flatsided="true" sodipodi:sides="7" sodipodi:cx="-2372.2505" sodipodi:cy="490.85654" sodipodi:r1="84.265114" sodipodi:r2="75.920242" sodipodi:arg1="-1.5707963" sodipodi:arg2="-1.1219974" inkscape:rounded="0" inkscape:randomized="0" d="m -2372.2505,406.59142 65.8811,31.72668 16.2713,71.28919 -45.5911,57.16949 -73.1226,0 -45.5911,-57.16949 16.2713,-71.28919 z" inkscape:transform-center-x="-1.1942666e-05" inkscape:transform-center-y="-2.598742" transform="matrix(0.25341256,0.31767179,-0.31767179,0.25341256,762.36269,494.50036)" inkscape:label="bg"></path>
        <path sodipodi:type="star" style="fill:#3d7f7d;fill-opacity:1;stroke:none;stroke-width:0.264583;stroke-dasharray:none;stroke-dashoffset:0;stroke-opacity:1;paint-order:normal" id="path37838" inkscape:flatsided="true" sodipodi:sides="7" sodipodi:cx="-2372.2505" sodipodi:cy="490.85654" sodipodi:r1="84.265114" sodipodi:r2="75.920242" sodipodi:arg1="-1.5707963" sodipodi:arg2="-1.1219974" inkscape:rounded="0" inkscape:randomized="0" d="m -2372.2505,406.59142 65.8811,31.72668 16.2713,71.28919 -45.5911,57.16949 -73.1226,0 -45.5911,-57.16949 16.2713,-71.28919 z" inkscape:transform-center-x="-1.2864136e-05" inkscape:transform-center-y="-1.9645826" transform="matrix(0.19157193,0.2401499,-0.2401499,0.19157193,577.60907,340.95388)" inkscape:label="mid"></path>
        <path sodipodi:type="star" style="fill:#4d8d8e;fill-opacity:1;stroke:none;stroke-width:0.264594;stroke-dasharray:none;stroke-dashoffset:0;stroke-opacity:1;paint-order:normal" id="path37840" inkscape:flatsided="false" sodipodi:sides="7" sodipodi:cx="-2372.2505" sodipodi:cy="490.85654" sodipodi:r1="60.7854" sodipodi:r2="75.877029" sodipodi:arg1="-1.5707963" sodipodi:arg2="-1.1242978" inkscape:rounded="0" inkscape:randomized="0" d="m -2372.2505,430.07114 32.7645,-7.653 14.7595,30.53932 26.4116,20.84472 -14.6742,30.58038 0.1703,33.64594 -33.0579,7.59379 -26.1992,21.11108 -26.5484,-21.11108 -32.8403,-7.32086 -0.047,-33.91887 -14.7519,-30.24003 26.4894,-21.18507 14.4449,-30.38785 z" inkscape:transform-center-x="-1.7850452" inkscape:transform-center-y="-5.6730757" transform="matrix(0.07502862,0.33149591,-0.33171442,0.07546073,346.15059,614.61914)" inkscape:label="high"></path>
      </g>
      <g id="g1717" inkscape:label="quartz" transform="translate(0,0.2796288)">
        <path sodipodi:type="star" style="fill:#0a0509;fill-opacity:1;stroke:#7f3d5f;stroke-width:2.78701;stroke-dasharray:none;stroke-dashoffset:0;stroke-opacity:1;paint-order:normal" id="path37842" inkscape:flatsided="true" sodipodi:sides="7" sodipodi:cx="-2372.2505" sodipodi:cy="490.85654" sodipodi:r1="84.265114" sodipodi:r2="75.920242" sodipodi:arg1="-1.5707963" sodipodi:arg2="-1.1219974" inkscape:rounded="0" inkscape:randomized="0" d="m -2372.2505,406.59142 65.8811,31.72668 16.2713,71.28919 -45.5911,57.16949 -73.1226,0 -45.5911,-57.16949 16.2713,-71.28919 z" inkscape:transform-center-x="-9.7329513e-06" inkscape:transform-center-y="-2.5987609" transform="matrix(-0.09030639,0.39620456,-0.39620456,-0.09030639,5.4152038,936.57751)" inkscape:label="bg"></path>
        <path sodipodi:type="star" style="fill:#7f3d5f;fill-opacity:1;stroke:none;stroke-width:0.264583;stroke-dasharray:none;stroke-dashoffset:0;stroke-opacity:1;paint-order:normal" id="path37844" inkscape:flatsided="true" sodipodi:sides="7" sodipodi:cx="-2372.2505" sodipodi:cy="490.85654" sodipodi:r1="84.265114" sodipodi:r2="75.920242" sodipodi:arg1="-1.5707963" sodipodi:arg2="-1.1219974" inkscape:rounded="0" inkscape:randomized="0" d="m -2372.2505,406.59142 65.8811,31.72668 16.2713,71.28919 -45.5911,57.16949 -73.1226,0 -45.5911,-57.16949 16.2713,-71.28919 z" inkscape:transform-center-x="-1.7159964e-05" inkscape:transform-center-y="-1.9645639" transform="matrix(-0.0682688,0.2995182,-0.2995182,-0.0682688,10.234791,696.39593)" inkscape:label="mid"></path>
        <path sodipodi:type="star" style="fill:#90496b;fill-opacity:1;stroke:none;stroke-width:0.264594;stroke-dasharray:none;stroke-dashoffset:0;stroke-opacity:1;paint-order:normal" id="path37846" inkscape:flatsided="false" sodipodi:sides="7" sodipodi:cx="-2372.2505" sodipodi:cy="490.85654" sodipodi:r1="60.7854" sodipodi:r2="75.877029" sodipodi:arg1="-1.5707963" sodipodi:arg2="-1.1242978" inkscape:rounded="0" inkscape:randomized="0" d="m -2372.2505,430.07114 32.7645,-7.653 14.7595,30.53932 26.4116,20.84472 -14.6742,30.58038 0.1703,33.64594 -33.0579,7.59379 -26.1992,21.11108 -26.5484,-21.11108 -32.8403,-7.32086 -0.047,-33.91887 -14.7519,-30.24003 26.4894,-21.18507 14.4449,-30.38785 z" inkscape:transform-center-x="-1.7850684" inkscape:transform-center-y="-5.673069" transform="matrix(-0.21235467,0.26537583,-0.2658499,-0.21225601,-348.03892,686.11548)" inkscape:label="high"></path>
      </g>
      <g id="g1697" inkscape:label="jade">
        <path sodipodi:type="star" style="fill:#070b09;fill-opacity:1;stroke:#3d7f5f;stroke-width:2.78701;stroke-dasharray:none;stroke-dashoffset:0;stroke-opacity:1;paint-order:normal" id="path37848" inkscape:flatsided="true" sodipodi:sides="7" sodipodi:cx="-2372.2505" sodipodi:cy="490.85654" sodipodi:r1="84.265114" sodipodi:r2="75.920242" sodipodi:arg1="-1.5707963" sodipodi:arg2="-1.1219974" inkscape:rounded="0" inkscape:randomized="0" d="m -2372.2505,406.59142 65.8811,31.72668 16.2713,71.28919 -45.5911,57.16949 -73.1226,0 -45.5911,-57.16949 16.2713,-71.28919 z" inkscape:transform-center-x="-3.0021457e-05" inkscape:transform-center-y="-2.5987509" transform="matrix(-0.09072125,-0.39610977,0.39610977,-0.09072125,-585.16814,-942.68176)" inkscape:label="bg"></path>
        <path sodipodi:type="star" style="fill:#3d7f5f;fill-opacity:1;stroke:none;stroke-width:0.264583;stroke-dasharray:none;stroke-dashoffset:0;stroke-opacity:1;paint-order:normal" id="path37850" inkscape:flatsided="true" sodipodi:sides="7" sodipodi:cx="-2372.2505" sodipodi:cy="490.85654" sodipodi:r1="84.265114" sodipodi:r2="75.920242" sodipodi:arg1="-1.5707963" sodipodi:arg2="-1.1219974" inkscape:rounded="0" inkscape:randomized="0" d="m -2372.2505,406.59142 65.8811,31.72668 16.2713,71.28919 -45.5911,57.16949 -73.1226,0 -45.5911,-57.16949 16.2713,-71.28919 z" inkscape:transform-center-x="-1.9746613e-05" inkscape:transform-center-y="-1.9645727" transform="matrix(-0.06858242,-0.29944655,0.29944655,-0.06858242,-485.20152,-724.23943)" inkscape:label="mid"></path>
        <path sodipodi:type="star" style="fill:#4d906f;fill-opacity:1;stroke:none;stroke-width:0.264594;stroke-dasharray:none;stroke-dashoffset:0;stroke-opacity:1;paint-order:normal" id="path37852" inkscape:flatsided="false" sodipodi:sides="7" sodipodi:cx="-2372.2505" sodipodi:cy="490.85654" sodipodi:r1="60.7854" sodipodi:r2="75.877029" sodipodi:arg1="-1.5707963" sodipodi:arg2="-1.1242978" inkscape:rounded="0" inkscape:randomized="0" d="m -2372.2505,430.07114 32.7645,-7.653 14.7595,30.53932 26.4116,20.84472 -14.6742,30.58038 0.1703,33.64594 -33.0579,7.59379 -26.1992,21.11108 -26.5484,-21.11108 -32.8403,-7.32086 -0.047,-33.91887 -14.7519,-30.24003 26.4894,-21.18507 14.4449,-30.38785 z" inkscape:transform-center-x="-1.7850713" inkscape:transform-center-y="-5.6730598" transform="matrix(0.07603401,-0.33126675,0.33165093,0.07573928,-158.0131,-870.57299)" inkscape:label="high"></path>
      </g>
      <g id="g1692" inkscape:label="fireOpal">
        <path sodipodi:type="star" style="fill:#000000;fill-opacity:1;stroke:#904040;stroke-width:2.78701;stroke-dasharray:none;stroke-dashoffset:0;stroke-opacity:1;paint-order:normal" id="path37854" inkscape:flatsided="true" sodipodi:sides="7" sodipodi:cx="-2372.2505" sodipodi:cy="490.85654" sodipodi:r1="84.265114" sodipodi:r2="75.920242" sodipodi:arg1="-1.5707963" sodipodi:arg2="-1.1219974" inkscape:rounded="0" inkscape:randomized="0" d="m -2372.2505,406.59142 65.8811,31.72668 16.2713,71.28919 -45.5911,57.16949 -73.1226,0 -45.5911,-57.16949 16.2713,-71.28919 z" inkscape:transform-center-x="-2.3482406e-05" inkscape:transform-center-y="-2.5987352" transform="matrix(0.25307975,-0.31793699,0.31793699,0.25307975,288.5861,-1013.0752)" inkscape:label="bg"></path>
        <path sodipodi:type="star" style="display:inline;fill:#904040;fill-opacity:1;stroke:none;stroke-width:0.264583;stroke-dasharray:none;stroke-dashoffset:0;stroke-opacity:1;paint-order:normal" id="path37856" inkscape:flatsided="true" sodipodi:sides="7" sodipodi:cx="-2372.2505" sodipodi:cy="490.85654" sodipodi:r1="84.265114" sodipodi:r2="75.920242" sodipodi:arg1="-1.5707963" sodipodi:arg2="-1.1219974" inkscape:rounded="0" inkscape:randomized="0" d="m -2372.2505,406.59142 65.8811,31.72668 16.2713,71.28919 -45.5911,57.16949 -73.1226,0 -45.5911,-57.16949 16.2713,-71.28919 z" inkscape:transform-center-x="-9.7826985e-06" inkscape:transform-center-y="-1.9645898" transform="matrix(0.19132035,-0.24035038,0.24035038,0.19132035,180.16124,-798.70533)" inkscape:label="mid"></path>
        <path sodipodi:type="star" style="fill:#9f5151;fill-opacity:1;stroke:none;stroke-width:0.264594;stroke-dasharray:none;stroke-dashoffset:0;stroke-opacity:1;paint-order:normal" id="path37858" inkscape:flatsided="false" sodipodi:sides="7" sodipodi:cx="-2372.2505" sodipodi:cy="490.85654" sodipodi:r1="60.7854" sodipodi:r2="75.877029" sodipodi:arg1="-1.5707963" sodipodi:arg2="-1.1242978" inkscape:rounded="0" inkscape:randomized="0" d="m -2372.2505,430.07114 32.7645,-7.653 14.7595,30.53932 26.4116,20.84472 -14.6742,30.58038 0.1703,33.64594 -33.0579,7.59379 -26.1992,21.11108 -26.5484,-21.11108 -32.8403,-7.32086 -0.047,-33.91887 -14.7519,-30.24003 26.4894,-21.18507 14.4449,-30.38785 z" inkscape:transform-center-x="-1.7850603" inkscape:transform-center-y="-5.6730705" transform="matrix(0.3063792,-0.14714148,0.14761148,0.30649573,498.59265,-634.18437)" inkscape:label="high"></path>
      </g>
      <path id="path37860" style="fill:#0d0d0d;fill-opacity:1;stroke:#fbf1f1;stroke-width:0.620681;stroke-dasharray:none;stroke-opacity:0.174515" inkscape:transform-center-x="-2.7662399e-05" inkscape:transform-center-y="7.9191513" d="m -138.22121,-201.34579 13.486,64.67356 -26.74876,32.74737 -65.40944,1.23093 61.58022,31.096299 8.64547,36.97914 -42.14782,54.94135 67.37883,-30.899919 28.362605,13.3351 17.94309,72.312379 17.95394,-72.356309 28.3099,-13.31029 67.42069,30.919039 -42.2113711,-55.02403 8.6149804,-36.84892 61.6742707,-31.143839 -65.4936811,-1.23248 -26.6815789,-32.66469 13.503059,-64.75469 -41.766449,50.39796 h -42.64752 z m 39.010015,80.33772 h 49.08589 l 30.60433,37.466979 -10.92285,46.72067 -44.22469,20.79304 -44.224675,-20.79304 -10.92233,-46.72067 z" inkscape:label="STAR"></path>
      <g id="g1836" transform="translate(0.06649747,0.03468858)" inkscape:label="obsidian">
        <path sodipodi:type="star" style="fill:#020202;fill-opacity:1;stroke:#5e5c5a;stroke-width:0.725715;stroke-dasharray:none;stroke-dashoffset:0;stroke-opacity:1;paint-order:normal" id="path1830" inkscape:flatsided="true" sodipodi:sides="7" sodipodi:cx="-2372.2505" sodipodi:cy="490.85654" sodipodi:r1="84.265114" sodipodi:r2="75.920242" sodipodi:arg1="-1.5707963" sodipodi:arg2="-1.1219974" inkscape:rounded="0" inkscape:randomized="0" d="m -2372.2505,406.59142 65.8811,31.72668 16.2713,71.28919 -45.5911,57.16949 -73.1226,0 -45.5911,-57.16949 16.2713,-71.28919 z" inkscape:transform-center-y="-2.5987538" transform="matrix(0.67128102,0,0,-0.65537035,1517.7119,250.40573)" inkscape:label="bg"></path>
        <path sodipodi:type="star" style="fill:#5e5c5a;fill-opacity:1;stroke:none;stroke-width:1.91996;stroke-dasharray:none;stroke-dashoffset:0;stroke-opacity:1;paint-order:normal" id="path1832" inkscape:flatsided="true" sodipodi:sides="7" sodipodi:cx="-2372.2505" sodipodi:cy="490.85654" sodipodi:r1="84.265114" sodipodi:r2="75.920242" sodipodi:arg1="-1.5707963" sodipodi:arg2="-1.1219974" inkscape:rounded="0" inkscape:randomized="0" d="m -2372.2505,406.59142 65.8811,31.72668 16.2713,71.28919 -45.5911,57.16949 -73.1226,0 -45.5911,-57.16949 16.2713,-71.28919 z" inkscape:transform-center-x="-4.8974723e-05" inkscape:transform-center-y="-1.9645756" transform="matrix(0.50746735,0,0,-0.49543943,1129.105,171.90259)" inkscape:label="mid"></path>
        <path sodipodi:type="star" style="fill:#ddd9d4;fill-opacity:0.133333;stroke:none;stroke-width:1.73456;stroke-dasharray:none;stroke-dashoffset:0;stroke-opacity:1;paint-order:normal" id="path1834" inkscape:flatsided="false" sodipodi:sides="7" sodipodi:cx="-2372.2505" sodipodi:cy="490.85654" sodipodi:r1="61.702164" sodipodi:r2="75.920242" sodipodi:arg1="-1.5707963" sodipodi:arg2="-1.1219974" inkscape:rounded="0" inkscape:randomized="0" d="m -2372.2505,429.15437 32.9406,-6.69961 15.3001,29.93111 25.7761,21.57682 -13.8616,30.62387 -0.7984,33.60547 -32.5852,8.25624 -26.7716,20.32851 -26.7716,-20.32852 -32.5852,-8.25622 -0.7984,-33.60548 -13.8616,-30.62386 25.7761,-21.57683 15.3002,-29.93111 z" inkscape:transform-center-x="-1.7850486" inkscape:transform-center-y="-5.6730751" transform="matrix(0.50537183,-0.2388018,-0.24426634,-0.49410366,1244.1907,-395.21253)" inkscape:label="high"></path>
      </g>
    </g>
  </g></svg>